<svg width="111" height="32" viewBox="0 0 111 32" fill="none" xmlns="http://www.w3.org/2000/svg">
<path d="M1.95907 0.800049C0.876429 0.800049 0 1.67648 0 2.75912C0 3.84177 0.876429 4.71819 1.95907 4.71819C3.04172 4.71819 3.91815 3.84177 3.91815 2.75912C3.91815 1.67648 3.04172 0.800049 1.95907 0.800049ZM1.95907 4.63227C0.927984 4.63227 0.068741 3.79021 0.068741 2.74194C0.068741 1.71084 0.910799 0.851601 1.95907 0.851601C2.99017 0.851601 3.84941 1.69366 3.84941 2.74194C3.83222 3.79021 2.99017 4.63227 1.95907 4.63227Z" fill="#C9FFC7"/>
<path d="M1.78722 2.19202H0.945162L0.927979 2.3295H1.27168L1.08264 3.36059H1.2373L1.42634 2.3295H1.77004L1.78722 2.19202Z" fill="#064133"/>
<path d="M2.37143 2.81067L2.11366 2.19202H1.94181L1.7356 3.36059H1.90744L2.06211 2.43261L2.33707 3.08563H2.35425L2.85261 2.44979L2.68076 3.36059H2.83543L3.04164 2.19202H2.86979L2.37143 2.81067Z" fill="#064133"/>
<path d="M19.9173 19.3253L9.22829 5.06189H4.89771L19.9173 25.0994L20.2266 25.4947H23.9385V24.687V8.89411H19.9173V19.3253Z" fill="#C9FFC7"/>
<path d="M33.3903 10.8016C31.225 10.8016 29.4549 11.5062 28.0973 12.9154C26.7226 14.3073 26.0352 16.0774 26.0352 18.1396C26.0352 20.2361 26.7397 22.0062 28.1317 23.3981C29.5237 24.7901 31.3796 25.4947 33.6652 25.4947C36.3289 25.4947 38.3739 24.498 39.7315 22.5045L39.869 22.3155L36.6898 20.4767L36.5695 20.6314C35.9336 21.4734 34.9713 21.9031 33.7168 21.9031C31.8436 21.9031 30.6922 21.2157 30.1939 19.7893H40.2642L40.2986 19.6003C40.4017 18.9816 40.4361 18.552 40.4361 18.1396C40.4361 16.0602 39.783 14.3417 38.4426 12.9154C37.1366 11.5234 35.4525 10.8016 33.3903 10.8016ZM30.1423 16.6617C30.5891 15.201 31.7577 14.3589 33.4075 14.3589C34.9197 14.3589 36.0711 15.2181 36.4835 16.6617H30.1423Z" fill="#C9FFC7"/>
<path d="M55.7649 10.8016C53.7199 10.8016 51.9499 11.5234 50.5407 12.9497C49.1144 14.3761 48.427 16.0774 48.427 18.1568C48.427 20.2189 49.1316 21.989 50.5407 23.3809C51.9499 24.7901 53.7028 25.4947 55.7649 25.4947C57.8271 25.4947 59.5972 24.7901 60.9891 23.3809C62.4155 21.9546 63.1372 20.2018 63.1372 18.1568C63.1372 16.1289 62.4155 14.3761 60.9891 12.9497C59.5628 11.5234 57.8099 10.8016 55.7649 10.8016ZM58.2395 20.6829C57.5693 21.3531 56.7617 21.6797 55.7649 21.6797C54.7682 21.6797 53.9605 21.3531 53.3075 20.7001C52.6717 20.0299 52.3451 19.1878 52.3451 18.1739C52.3451 17.16 52.6717 16.318 53.3075 15.6478C53.9777 14.9776 54.7854 14.651 55.7821 14.651C56.7788 14.651 57.5865 14.9776 58.2567 15.6478C58.9098 16.3008 59.2535 17.16 59.2535 18.1739C59.2535 19.1878 58.8926 20.0127 58.2395 20.6829Z" fill="#C9FFC7"/>
<path d="M74.7025 19.9439C74.187 20.9922 73.1043 21.6109 71.7811 21.6109C70.8016 21.6109 69.9767 21.2844 69.3408 20.6485C68.705 19.9783 68.3785 19.1363 68.3785 18.1567C68.3785 16.1289 69.8048 14.6682 71.7811 14.6682C73.0528 14.6682 74.1526 15.3212 74.6682 16.3523L74.7713 16.5585L78.1395 14.5823L78.0536 14.3932C76.9022 12.1764 74.5135 10.7844 71.8155 10.7844C69.7361 10.7844 67.9661 11.489 66.5569 12.8982C65.1477 14.3245 64.4775 16.043 64.4775 18.1224C64.4775 20.2017 65.1649 21.9202 66.5741 23.3465C67.9832 24.7557 69.7533 25.4603 71.8327 25.4603C74.4619 25.4603 76.885 24.0683 78.1223 21.8343L78.2254 21.6452L74.8228 19.7034L74.7025 19.9439Z" fill="#C9FFC7"/>
<path d="M81.4735 5.92114C80.2018 5.92114 79.1191 7.00379 79.1191 8.29266C79.1191 9.56434 80.2018 10.647 81.4735 10.647C82.7795 10.647 83.845 9.59871 83.845 8.29266C83.8622 7.00379 82.7623 5.92114 81.4735 5.92114Z" fill="#C9FFC7"/>
<path d="M91.3203 7.58813L87.4022 8.77389V11.4547H85.0479V15.2354H87.4022V20.6314C87.4022 22.453 87.8146 23.656 88.691 24.4465C89.4815 25.1511 90.6845 25.4947 92.3342 25.4947C92.8842 25.4947 93.5028 25.4604 94.173 25.3745L94.3621 25.3573V21.7828L94.1386 21.8C92.8498 21.8687 91.9905 21.8859 91.5953 21.5079C91.4063 21.336 91.3203 21.0439 91.3203 20.6314V15.2354H94.3792V11.4547H91.3203V7.58813Z" fill="#C9FFC7"/>
<path d="M105.566 11.8328L102.714 20.4939L99.4143 11.9702L99.3628 11.8328H95.0837L100.72 25.1338C100.102 26.8351 99.1909 27.5053 97.5068 27.5053C97.4724 27.5053 97.4381 27.5053 97.4209 27.5053H97.1975V31.1657L97.4037 31.1829C97.5755 31.2001 97.7474 31.2001 97.9192 31.2001C101.202 31.2001 103.384 29.4301 104.742 25.6494L109.76 11.8499H105.566V11.8328Z" fill="#C9FFC7"/>
<path d="M46.4163 8.89417H42.395V25.4947H46.4163V8.89417Z" fill="#C9FFC7"/>
<path d="M83.5012 11.8328H79.48V25.4947H83.5012V11.8328Z" fill="#C9FFC7"/>
</svg>
