<svg width="164" height="48" viewBox="0 0 164 48" fill="none" xmlns="http://www.w3.org/2000/svg">
<path d="M2.89602 1.2002C1.29559 1.2002 0 2.51484 0 4.13881C0 5.76278 1.29559 7.07742 2.89602 7.07742C4.49646 7.07742 5.79204 5.76278 5.79204 4.13881C5.79204 2.51484 4.49646 1.2002 2.89602 1.2002ZM2.89602 6.94853C1.3718 6.94853 0.101617 5.68544 0.101617 4.11303C0.101617 2.56639 1.3464 1.27752 2.89602 1.27752C4.42025 1.27752 5.69043 2.54061 5.69043 4.11303C5.66503 5.68544 4.42025 6.94853 2.89602 6.94853Z" fill="white"/>
<path d="M2.64177 3.28809H1.39698L1.37158 3.49431H1.87966L1.60021 5.04094H1.82885L2.10829 3.49431H2.61636L2.64177 3.28809Z" fill="white"/>
<path d="M3.50585 4.21607L3.1248 3.28809H2.87076L2.56592 5.04094H2.81995L3.04859 3.64897L3.45505 4.6285H3.48045L4.21716 3.67475L3.96312 5.04094H4.19175L4.4966 3.28809H4.24256L3.50585 4.21607Z" fill="white"/>
<path d="M29.4431 28.9879L13.642 7.59277H7.24023L29.4431 37.6491L29.9003 38.242H35.3875V37.0304V13.3411H29.4431V28.9879Z" fill="white"/>
<path d="M49.3596 16.2026C46.1587 16.2026 43.5422 17.2595 41.5353 19.3732C39.503 21.4612 38.4868 24.1163 38.4868 27.2095C38.4868 30.3544 39.5284 33.0094 41.5861 35.0974C43.6438 37.1853 46.3874 38.2422 49.7661 38.2422C53.7036 38.2422 56.7267 36.7471 58.7336 33.757L58.9368 33.4734L54.2371 30.7153L54.0593 30.9472C53.1193 32.2103 51.6967 32.8548 49.8423 32.8548C47.0733 32.8548 45.3712 31.8237 44.6345 29.6842H59.5211L59.5719 29.4006C59.7243 28.4726 59.7751 27.8282 59.7751 27.2095C59.7751 24.0905 58.8098 21.5128 56.8283 19.3732C54.8976 17.2853 52.408 16.2026 49.3596 16.2026ZM44.5583 24.9927C45.2188 22.8016 46.9462 21.5385 49.385 21.5385C51.6205 21.5385 53.3226 22.8274 53.9323 24.9927H44.5583Z" fill="white"/>
<path d="M82.4348 16.2026C79.4117 16.2026 76.7952 17.2853 74.7121 19.4248C72.6035 21.5643 71.5874 24.1163 71.5874 27.2353C71.5874 30.3286 72.629 32.9836 74.7121 35.0716C76.7952 37.1853 79.3863 38.2422 82.4348 38.2422C85.4832 38.2422 88.0998 37.1853 90.1575 35.0716C92.266 32.9321 93.333 30.3028 93.333 27.2353C93.333 24.1936 92.266 21.5643 90.1575 19.4248C88.049 17.2853 85.4578 16.2026 82.4348 16.2026ZM86.0929 31.0246C85.1022 32.0299 83.9082 32.5197 82.4348 32.5197C80.9614 32.5197 79.7674 32.0299 78.8021 31.0504C77.8621 30.045 77.3794 28.782 77.3794 27.2611C77.3794 25.7402 77.8621 24.4771 78.8021 23.4718C79.7928 22.4665 80.9868 21.9768 82.4602 21.9768C83.9336 21.9768 85.1276 22.4665 86.1183 23.4718C87.0837 24.4514 87.5917 25.7402 87.5917 27.2611C87.5917 28.782 87.0582 30.0193 86.0929 31.0246Z" fill="white"/>
<path d="M110.43 29.916C109.668 31.4885 108.067 32.4164 106.111 32.4164C104.663 32.4164 103.444 31.9267 102.504 30.9729C101.564 29.9676 101.081 28.7045 101.081 27.2352C101.081 24.1935 103.19 22.0024 106.111 22.0024C107.991 22.0024 109.617 22.982 110.379 24.5286L110.531 24.8379L115.51 21.8735L115.383 21.59C113.681 18.2647 110.15 16.1768 106.162 16.1768C103.088 16.1768 100.471 17.2336 98.3883 19.3474C96.3052 21.4869 95.3145 24.0646 95.3145 27.1837C95.3145 30.3027 96.3306 32.8804 98.4137 35.0199C100.497 37.1337 103.113 38.1906 106.187 38.1906C110.074 38.1906 113.656 36.1026 115.485 32.7515L115.637 32.468L110.607 29.5552L110.43 29.916Z" fill="white"/>
<path d="M120.439 8.88184C118.559 8.88184 116.958 10.5058 116.958 12.4391C116.958 14.3466 118.559 15.9706 120.439 15.9706C122.369 15.9706 123.945 14.3982 123.945 12.4391C123.97 10.5058 122.344 8.88184 120.439 8.88184Z" fill="white"/>
<path d="M134.995 11.3823L129.203 13.161V17.1822H125.723V22.8532H129.203V30.9473C129.203 33.6797 129.813 35.4841 131.108 36.6698C132.277 37.7267 134.055 38.2422 136.494 38.2422C137.307 38.2422 138.221 38.1907 139.212 38.0618L139.491 38.036V32.6744L139.161 32.7001C137.256 32.8032 135.986 32.829 135.401 32.2619C135.122 32.0041 134.995 31.5659 134.995 30.9473V22.8532H139.517V17.1822H134.995V11.3823V11.3823Z" fill="white"/>
<path d="M156.055 17.749L151.838 30.7408L146.96 17.9552L146.884 17.749H140.559L148.891 37.7006C147.976 40.2526 146.63 41.2579 144.141 41.2579C144.09 41.2579 144.039 41.2579 144.013 41.2579H143.683V46.7485L143.988 46.7742C144.242 46.8 144.496 46.8 144.75 46.8C149.602 46.8 152.829 44.145 154.835 38.474L162.253 17.7748H156.055V17.749Z" fill="white"/>
<path d="M68.6154 13.3413H62.6709V38.2422H68.6154V13.3413Z" fill="white"/>
<path d="M123.437 17.749H117.492V38.242H123.437V17.749Z" fill="white"/>
</svg>
