<svg width="164" height="48" viewBox="0 0 164 48" fill="none" xmlns="http://www.w3.org/2000/svg">
<path d="M2.89602 1.19995C1.29559 1.19995 0 2.51459 0 4.13856C0 5.76253 1.29559 7.07717 2.89602 7.07717C4.49646 7.07717 5.79204 5.76253 5.79204 4.13856C5.79204 2.51459 4.49646 1.19995 2.89602 1.19995ZM2.89602 6.94828C1.3718 6.94828 0.101617 5.6852 0.101617 4.11278C0.101617 2.56614 1.3464 1.27728 2.89602 1.27728C4.42025 1.27728 5.69043 2.54037 5.69043 4.11278C5.66503 5.6852 4.42025 6.94828 2.89602 6.94828Z" fill="#C9FFC7"/>
<path d="M2.64177 3.28796H1.39698L1.37158 3.49418H1.87966L1.60021 5.04082H1.82885L2.10829 3.49418H2.61636L2.64177 3.28796Z" fill="#C9FFC7"/>
<path d="M3.50585 4.21595L3.1248 3.28796H2.87076L2.56592 5.04082H2.81995L3.04859 3.64885L3.45505 4.62838H3.48045L4.21716 3.67462L3.96312 5.04082H4.19175L4.4966 3.28796H4.24256L3.50585 4.21595Z" fill="#C9FFC7"/>
<path d="M29.4431 28.9879L13.642 7.59277H7.24023L29.4431 37.6491L29.9003 38.242H35.3875V37.0304V13.3411H29.4431V28.9879Z" fill="#C9FFC7"/>
<path d="M49.3596 16.2023C46.1587 16.2023 43.5422 17.2591 41.5353 19.3729C39.503 21.4608 38.4868 24.1159 38.4868 27.2092C38.4868 30.354 39.5284 33.0091 41.5861 35.097C43.6438 37.185 46.3874 38.2418 49.7661 38.2418C53.7036 38.2418 56.7267 36.7468 58.7336 33.7566L58.9368 33.473L54.2371 30.7149L54.0593 30.9469C53.1193 32.21 51.6967 32.8544 49.8423 32.8544C47.0733 32.8544 45.3712 31.8233 44.6345 29.6838H59.5211L59.5719 29.4002C59.7243 28.4723 59.7751 27.8278 59.7751 27.2092C59.7751 24.0901 58.8098 21.5124 56.8283 19.3729C54.8976 17.2849 52.408 16.2023 49.3596 16.2023ZM44.5583 24.9923C45.2188 22.8013 46.9462 21.5382 49.385 21.5382C51.6205 21.5382 53.3226 22.827 53.9323 24.9923H44.5583Z" fill="#C9FFC7"/>
<path d="M82.4348 16.2023C79.4117 16.2023 76.7952 17.2849 74.7121 19.4244C72.6035 21.5639 71.5874 24.1159 71.5874 27.235C71.5874 30.3282 72.629 32.9833 74.7121 35.0712C76.7952 37.185 79.3863 38.2418 82.4348 38.2418C85.4832 38.2418 88.0998 37.185 90.1575 35.0712C92.266 32.9317 93.333 30.3024 93.333 27.235C93.333 24.1932 92.266 21.5639 90.1575 19.4244C88.049 17.2849 85.4578 16.2023 82.4348 16.2023ZM86.0929 31.0242C85.1022 32.0295 83.9082 32.5193 82.4348 32.5193C80.9614 32.5193 79.7674 32.0295 78.8021 31.05C77.8621 30.0447 77.3794 28.7816 77.3794 27.2607C77.3794 25.7399 77.8621 24.4768 78.8021 23.4715C79.7928 22.4662 80.9868 21.9764 82.4602 21.9764C83.9336 21.9764 85.1276 22.4662 86.1183 23.4715C87.0837 24.451 87.5917 25.7399 87.5917 27.2607C87.5917 28.7816 87.0582 30.0189 86.0929 31.0242Z" fill="#C9FFC7"/>
<path d="M110.43 29.9158C109.668 31.4882 108.067 32.4162 106.111 32.4162C104.663 32.4162 103.444 31.9264 102.504 30.9727C101.564 29.9674 101.081 28.7043 101.081 27.235C101.081 24.1932 103.19 22.0022 106.111 22.0022C107.991 22.0022 109.617 22.9817 110.379 24.5284L110.531 24.8377L115.51 21.8733L115.383 21.5897C113.681 18.2645 110.15 16.1765 106.162 16.1765C103.088 16.1765 100.471 17.2334 98.3883 19.3471C96.3052 21.4866 95.3145 24.0644 95.3145 27.1834C95.3145 30.3025 96.3306 32.8802 98.4137 35.0197C100.497 37.1334 103.113 38.1903 106.187 38.1903C110.074 38.1903 113.656 36.1023 115.485 32.7513L115.637 32.4678L110.607 29.5549L110.43 29.9158Z" fill="#C9FFC7"/>
<path d="M120.439 8.88159C118.559 8.88159 116.958 10.5056 116.958 12.4389C116.958 14.3464 118.559 15.9703 120.439 15.9703C122.369 15.9703 123.945 14.3979 123.945 12.4389C123.97 10.5056 122.344 8.88159 120.439 8.88159Z" fill="#C9FFC7"/>
<path d="M134.995 11.382L129.203 13.1606V17.1818H125.723V22.8528H129.203V30.9469C129.203 33.6793 129.813 35.4837 131.108 36.6695C132.277 37.7263 134.055 38.2419 136.494 38.2419C137.307 38.2419 138.221 38.1903 139.212 38.0614L139.491 38.0357V32.674L139.161 32.6998C137.256 32.8029 135.986 32.8287 135.401 32.2616C135.122 32.0038 134.995 31.5656 134.995 30.9469V22.8528H139.517V17.1818H134.995V11.382V11.382Z" fill="#C9FFC7"/>
<path d="M156.055 17.7489L151.838 30.7407L146.96 17.9551L146.884 17.7489H140.559L148.891 37.7005C147.976 40.2525 146.63 41.2578 144.141 41.2578C144.09 41.2578 144.039 41.2578 144.013 41.2578H143.683V46.7483L143.988 46.7741C144.242 46.7999 144.496 46.7999 144.75 46.7999C149.602 46.7999 152.829 44.1448 154.835 38.4738L162.253 17.7747H156.055V17.7489Z" fill="#C9FFC7"/>
<path d="M68.6154 13.3411H62.6709V38.2419H68.6154V13.3411Z" fill="#C9FFC7"/>
<path d="M123.437 17.7489H117.492V38.2418H123.437V17.7489Z" fill="#C9FFC7"/>
</svg>
