<svg width="30" height="30" viewBox="0 0 30 30" fill="none" xmlns="http://www.w3.org/2000/svg">
<path d="M24 0H6C2.68629 0 0 2.68629 0 6V24C0 27.3137 2.68629 30 6 30H24C27.3137 30 30 27.3137 30 24V6C30 2.68629 27.3137 0 24 0Z" fill="#E30A17"/>
<path d="M12.5 22C16.366 22 19.5 18.866 19.5 15C19.5 11.134 16.366 8 12.5 8C8.63401 8 5.5 11.134 5.5 15C5.5 18.866 8.63401 22 12.5 22Z" fill="white"/>
<path d="M15 21C18.0376 21 20.5 18.3137 20.5 15C20.5 11.6863 18.0376 9 15 9C11.9624 9 9.5 11.6863 9.5 15C9.5 18.3137 11.9624 21 15 21Z" fill="#E30A17"/>
<path d="M18.5 15L24.5 16.8543L20.7908 12V18L24.5 13.1457L18.5 15Z" fill="white"/>
</svg>
