<svg width="30" height="30" viewBox="0 0 30 30" fill="none" xmlns="http://www.w3.org/2000/svg">
<g clip-path="url(#clip0)">
<mask id="mask0" mask-type="alpha" maskUnits="userSpaceOnUse" x="-1" y="0" width="31" height="30">
<path d="M23.9873 0H5.9873C2.6736 0 -0.0126953 2.68629 -0.0126953 6V24C-0.0126953 27.3137 2.6736 30 5.9873 30H23.9873C27.301 30 29.9873 27.3137 29.9873 24V6C29.9873 2.68629 27.301 0 23.9873 0Z" fill="#B22234"/>
</mask>
<g mask="url(#mask0)">
<path d="M23.9873 0H5.9873C2.6736 0 -0.0126953 2.68629 -0.0126953 6V24C-0.0126953 27.3137 2.6736 30 5.9873 30H23.9873C27.301 30 29.9873 27.3137 29.9873 24V6C29.9873 2.68629 27.301 0 23.9873 0Z" fill="#B22234"/>
<path d="M-0.0126953 3.46118H49.9873H-0.0126953ZM49.9873 8.07785H-0.0126953H49.9873ZM-0.0126953 12.6917H49.9873H-0.0126953ZM49.9873 17.3084H-0.0126953H49.9873ZM-0.0126953 21.9223H49.9873H-0.0126953ZM49.9873 26.539H-0.0126953H49.9873Z" fill="black"/>
<path d="M49.9873 27.6917H-0.0126953V25.3834H49.9873V27.6917ZM49.9873 23.0778H-0.0126953V20.7695H49.9873V23.0778ZM49.9873 18.4611H-0.0126953V16.1528H49.9873V18.4611ZM49.9873 13.8472H-0.0126953V11.5389H49.9873V13.8472ZM49.9873 9.23057H-0.0126953V6.92224H49.9873V9.23057ZM49.9873 4.61668H-0.0126953V2.30835H49.9873V4.61668Z" fill="white"/>
<path d="M22.7873 0H-0.0126953V16.1528H22.7873V0Z" fill="#3C3B6E"/>
<path d="M1.89066 0.69165L2.4351 2.3611L1.00732 1.33054H2.7601L1.34344 2.36387L1.89066 0.69165Z" fill="white"/>
<path d="M1.88983 3.92236L2.43428 5.59181L1.00928 4.55847H2.76205L1.33983 5.59181L1.88983 3.92236Z" fill="white"/>
<path d="M1.89047 7.15259L2.43492 8.82203L1.0127 7.7887H2.76547L1.34325 8.82203L1.89047 7.15259Z" fill="white"/>
<path d="M1.89047 10.3833L2.43492 12.0555L1.0127 11.0222H2.76547L1.34325 12.0555L1.89047 10.3833Z" fill="white"/>
<path d="M1.89047 13.6167L2.43492 15.2861L1.0127 14.2528H2.76547L1.34325 15.2861L1.89047 13.6167Z" fill="white"/>
<path d="M3.78467 2.30835L4.32911 3.97779L2.90967 2.94446H4.66245L3.24578 3.97779L3.78467 2.30835Z" fill="white"/>
<path d="M3.785 5.53882L4.32945 7.20826L2.90723 6.17493H4.66L3.23778 7.20826L3.785 5.53882Z" fill="white"/>
<path d="M3.785 8.76953L4.32945 10.439L2.90723 9.40564H4.66L3.23778 10.439L3.785 8.76953Z" fill="white"/>
<path d="M3.785 12L4.32945 13.6694L2.90723 12.6361H4.66L3.23778 13.6694L3.785 12Z" fill="white"/>
<path d="M5.68735 0.69165L6.23179 2.36109L4.80957 1.32776H6.56235L5.14013 2.36109L5.68735 0.69165Z" fill="white"/>
<path d="M5.68735 3.92236L6.23179 5.59181L4.80957 4.55847H6.56235L5.14013 5.59181L5.68735 3.92236Z" fill="white"/>
<path d="M5.68735 7.15259L6.23179 8.82203L4.80957 7.7887H6.56235L5.14013 8.82203L5.68735 7.15259Z" fill="white"/>
<path d="M5.68735 10.3833L6.23179 12.0527L4.80957 11.0194H6.56235L5.1429 12.0555L5.68735 10.3833Z" fill="white"/>
<path d="M5.68735 13.6167L6.23179 15.2861L4.80957 14.2528H6.56235L5.14013 15.2861L5.68735 13.6167Z" fill="white"/>
<path d="M7.58969 2.30835L8.13414 3.97779L6.71191 2.94446H8.46469L7.04247 3.97779L7.58969 2.30835Z" fill="white"/>
<path d="M7.58969 5.53882L8.13414 7.20826L6.71191 6.17493H8.46469L7.04247 7.20826L7.58969 5.53882Z" fill="white"/>
<path d="M7.58969 8.76953L8.13414 10.439L6.71191 9.40564H8.46469L7.04247 10.439L7.58969 8.76953Z" fill="white"/>
<path d="M7.58969 12L8.13414 13.6694L6.71191 12.6361H8.46469L7.04247 13.6694L7.58969 12Z" fill="white"/>
<path d="M9.48471 0.69165L10.0292 2.36109L8.60693 1.32776H10.3597L8.93749 2.36109L9.48471 0.69165Z" fill="white"/>
<path d="M9.48471 3.92236L10.0292 5.59181L8.60693 4.55847H10.3597L8.93749 5.59181L9.48471 3.92236Z" fill="white"/>
<path d="M9.48471 7.15259L10.0292 8.82203L8.60693 7.7887H10.3597L8.93749 8.82203L9.48471 7.15259Z" fill="white"/>
<path d="M9.48471 10.3833L10.0292 12.0527L8.60693 11.0194H10.3597L8.94027 12.0555L9.48471 10.3833Z" fill="white"/>
<path d="M9.48471 13.6167L10.0292 15.2861L8.60693 14.2528H10.3597L8.93749 15.2861L9.48471 13.6167Z" fill="white"/>
<path d="M11.3871 2.30835L11.9315 3.97779L10.5093 2.94446H12.2648L10.8426 3.97779L11.3871 2.30835Z" fill="white"/>
<path d="M11.3871 5.53882L11.9315 7.20826L10.5093 6.17493H12.2648L10.8426 7.20826L11.3871 5.53882Z" fill="white"/>
<path d="M11.3871 8.76953L11.9315 10.439L10.5093 9.40564H12.2648L10.8426 10.439L11.3871 8.76953Z" fill="white"/>
<path d="M11.3871 12L11.9315 13.6694L10.5093 12.6361H12.2648L10.8426 13.6694L11.3871 12Z" fill="white"/>
<path d="M13.2894 0.69165L13.8338 2.36109L12.4116 1.32776H14.1644L12.7422 2.36109L13.2894 0.69165Z" fill="white"/>
<path d="M13.2894 3.92236L13.8338 5.59181L12.4116 4.55847H14.1644L12.7422 5.59181L13.2894 3.92236Z" fill="white"/>
<path d="M13.2894 7.15259L13.8338 8.82203L12.4116 7.7887H14.1644L12.7422 8.82203L13.2894 7.15259Z" fill="white"/>
<path d="M13.2894 10.3833L13.8338 12.0527L12.4116 11.0194H14.1644L12.7422 12.0555L13.2894 10.3833Z" fill="white"/>
<path d="M13.2894 13.6167L13.8338 15.2861L12.4116 14.2528H14.1644L12.7422 15.2861L13.2894 13.6167Z" fill="white"/>
<path d="M15.1846 2.30835L15.729 3.97779L14.3096 2.94446H16.0624L14.6401 3.97779L15.1846 2.30835Z" fill="white"/>
<path d="M15.1844 5.53882L15.7289 7.20826L14.3066 6.17493H16.0594L14.6372 7.20826L15.1844 5.53882Z" fill="white"/>
<path d="M15.1844 8.76953L15.7289 10.439L14.3066 9.40564H16.0594L14.6372 10.439L15.1844 8.76953Z" fill="white"/>
<path d="M15.1844 12L15.7289 13.6694L14.3066 12.6361H16.0594L14.6372 13.6694L15.1844 12Z" fill="white"/>
<path d="M17.0877 0.69165L17.6322 2.3611L16.21 1.33054H17.9627L16.5433 2.36387L17.0877 0.69165Z" fill="white"/>
<path d="M17.0877 3.92236L17.6322 5.59181L16.21 4.56125H17.9627L16.5433 5.59459L17.0877 3.92236Z" fill="white"/>
<path d="M17.0877 7.15259L17.6322 8.82203L16.21 7.79148H17.9627L16.5433 8.82481L17.0877 7.15259Z" fill="white"/>
<path d="M17.0877 10.3833L17.6322 12.0527L16.21 11.0222H17.9627L16.5433 12.0555L17.0877 10.3833Z" fill="white"/>
<path d="M17.0877 13.6167L17.6322 15.2861L16.21 14.2528H17.9627L16.5433 15.2861L17.0877 13.6167Z" fill="white"/>
<path d="M18.9901 2.30835L19.5345 3.97779L18.1123 2.94446H19.8651L18.4429 3.97779L18.9901 2.30835Z" fill="white"/>
<path d="M18.9901 5.53882L19.5345 7.20826L18.1123 6.17493H19.8651L18.4429 7.20826L18.9901 5.53882Z" fill="white"/>
<path d="M18.9901 8.76953L19.5345 10.439L18.1123 9.40564H19.8651L18.4429 10.439L18.9901 8.76953Z" fill="white"/>
<path d="M18.9901 12L19.5345 13.6694L18.1123 12.6361H19.8651L18.4429 13.6694L18.9901 12Z" fill="white"/>
<path d="M20.8843 0.69165L21.4315 2.36387L20.0093 1.33054H21.7621L20.3398 2.36387L20.8843 0.69165Z" fill="white"/>
<path d="M20.8851 3.92236L21.4295 5.59181L20.0073 4.55847H21.7601L20.3379 5.59181L20.8851 3.92236Z" fill="white"/>
<path d="M20.8851 7.15259L21.4295 8.82203L20.0073 7.7887H21.7601L20.3379 8.82203L20.8851 7.15259Z" fill="white"/>
<path d="M20.8843 10.3833L21.4315 12.0555L20.0093 11.0222H21.7621L20.3398 12.0555L20.8843 10.3833Z" fill="white"/>
<path d="M20.8851 13.6167L21.4295 15.2861L20.0073 14.2528H21.7601L20.3379 15.2861L20.8851 13.6167Z" fill="white"/>
</g>
</g>
<defs>
<clipPath id="clip0">
<rect width="30" height="30" fill="white"/>
</clipPath>
</defs>
</svg>
